<svg width="252" height="32" viewBox="0 0 252 32" fill="none" xmlns="http://www.w3.org/2000/svg">
          <path opacity="0.2" d="M22 14L9.29254 26.7075C9.10502 26.8949 8.85077 27.0002 8.58566 27.0002C8.32056 27.0002 8.06631 26.8949 7.87879 26.7075L5.29254 24.125C5.10514 23.9375 4.99988 23.6832 4.99988 23.4181C4.99988 23.153 5.10514 22.8988 5.29254 22.7113L18 10L22 14Z" fill="#F9FAFB"/>
          <path d="M31 19C31 19.2652 30.8946 19.5196 30.7071 19.7071C30.5195 19.8946 30.2652 20 30 20H28V22C28 22.2652 27.8946 22.5196 27.7071 22.7071C27.5195 22.8946 27.2652 23 27 23C26.7348 23 26.4804 22.8946 26.2929 22.7071C26.1053 22.5196 26 22.2652 26 22V20H24C23.7348 20 23.4804 19.8946 23.2929 19.7071C23.1053 19.5196 23 19.2652 23 19C23 18.7348 23.1053 18.4804 23.2929 18.2929C23.4804 18.1054 23.7348 18 24 18H26V16C26 15.7348 26.1053 15.4804 26.2929 15.2929C26.4804 15.1054 26.7348 15 27 15C27.2652 15 27.5195 15.1054 27.7071 15.2929C27.8946 15.4804 28 15.7348 28 16V18H30C30.2652 18 30.5195 18.1054 30.7071 18.2929C30.8946 18.4804 31 18.7348 31 19ZM6.99997 9H8.99997V11C8.99997 11.2652 9.10533 11.5196 9.29286 11.7071C9.4804 11.8946 9.73476 12 9.99997 12C10.2652 12 10.5195 11.8946 10.7071 11.7071C10.8946 11.5196 11 11.2652 11 11V9H13C13.2652 9 13.5195 8.89464 13.7071 8.70711C13.8946 8.51957 14 8.26522 14 8C14 7.73478 13.8946 7.48043 13.7071 7.29289C13.5195 7.10536 13.2652 7 13 7H11V5C11 4.73478 10.8946 4.48043 10.7071 4.29289C10.5195 4.10536 10.2652 4 9.99997 4C9.73476 4 9.4804 4.10536 9.29286 4.29289C9.10533 4.48043 8.99997 4.73478 8.99997 5V7H6.99997C6.73475 7 6.4804 7.10536 6.29286 7.29289C6.10533 7.48043 5.99997 7.73478 5.99997 8C5.99997 8.26522 6.10533 8.51957 6.29286 8.70711C6.4804 8.89464 6.73475 9 6.99997 9ZM23 24H22V23C22 22.7348 21.8946 22.4804 21.7071 22.2929C21.5195 22.1054 21.2652 22 21 22C20.7348 22 20.4804 22.1054 20.2929 22.2929C20.1053 22.4804 20 22.7348 20 23V24H19C18.7348 24 18.4804 24.1054 18.2929 24.2929C18.1053 24.4804 18 24.7348 18 25C18 25.2652 18.1053 25.5196 18.2929 25.7071C18.4804 25.8946 18.7348 26 19 26H20V27C20 27.2652 20.1053 27.5196 20.2929 27.7071C20.4804 27.8946 20.7348 28 21 28C21.2652 28 21.5195 27.8946 21.7071 27.7071C21.8946 27.5196 22 27.2652 22 27V26H23C23.2652 26 23.5195 25.8946 23.7071 25.7071C23.8946 25.5196 24 25.2652 24 25C24 24.7348 23.8946 24.4804 23.7071 24.2929C23.5195 24.1054 23.2652 24 23 24ZM27.4137 10L9.99997 27.4137C9.62494 27.7885 9.11643 27.9991 8.58622 27.9991C8.05602 27.9991 7.54751 27.7885 7.17247 27.4137L4.58497 24.8288C4.39921 24.643 4.25185 24.4225 4.15131 24.1798C4.05077 23.9372 3.99902 23.6771 3.99902 23.4144C3.99902 23.1517 4.05077 22.8916 4.15131 22.6489C4.25185 22.4062 4.39921 22.1857 4.58497 22L22 4.58625C22.1857 4.40048 22.4062 4.25312 22.6489 4.15259C22.8916 4.05205 23.1517 4.0003 23.4143 4.0003C23.677 4.0003 23.9371 4.05205 24.1798 4.15259C24.4225 4.25312 24.643 4.40048 24.8287 4.58625L27.4137 7.17125C27.5995 7.35697 27.7468 7.57747 27.8474 7.82015C27.9479 8.06283 27.9997 8.32294 27.9997 8.58562C27.9997 8.84831 27.9479 9.10842 27.8474 9.3511C27.7468 9.59378 27.5995 9.81428 27.4137 10ZM20.585 14L18 11.4137L5.99997 23.4137L8.58497 26L20.585 14ZM26 8.58625L23.4137 6L19.4137 10L22 12.5863L26 8.58625Z" fill="#F9FAFB"/>
          <path d="M40.5682 8.45455H42.1023L46.4134 15.358H46.5412L50.8523 8.45455H52.3864L47.1378 16.7003V23H45.8168V16.7003L40.5682 8.45455ZM57.3153 23.2273C56.3731 23.2273 55.5398 22.9882 54.8153 22.5099C54.0956 22.0317 53.5322 21.3712 53.125 20.5284C52.7178 19.6809 52.5142 18.7031 52.5142 17.5952C52.5142 16.4777 52.7178 15.4953 53.125 14.6477C53.5322 13.7955 54.0956 13.1326 54.8153 12.6591C55.5398 12.1809 56.3731 11.9418 57.3153 11.9418C58.2576 11.9418 59.0885 12.1809 59.8082 12.6591C60.5279 13.1373 61.0914 13.8002 61.4986 14.6477C61.9105 15.4953 62.1165 16.4777 62.1165 17.5952C62.1165 18.7031 61.9129 19.6809 61.5057 20.5284C61.0985 21.3712 60.5327 22.0317 59.8082 22.5099C59.0885 22.9882 58.2576 23.2273 57.3153 23.2273ZM57.3153 22.0696C58.0729 22.0696 58.7145 21.866 59.2401 21.4588C59.7656 21.0516 60.1634 20.5095 60.4332 19.8324C60.7079 19.1553 60.8452 18.4096 60.8452 17.5952C60.8452 16.7808 60.7079 16.0327 60.4332 15.3509C60.1634 14.669 59.7656 14.1222 59.2401 13.7102C58.7145 13.2983 58.0729 13.0923 57.3153 13.0923C56.5625 13.0923 55.9209 13.2983 55.3906 13.7102C54.8651 14.1222 54.465 14.669 54.1903 15.3509C53.9205 16.0327 53.7855 16.7808 53.7855 17.5952C53.7855 18.4096 53.9205 19.1553 54.1903 19.8324C54.465 20.5095 54.8651 21.0516 55.3906 21.4588C55.9162 21.866 56.5578 22.0696 57.3153 22.0696ZM71.8235 18.831V12.0909H73.0877V23H71.8235V21.1889H71.7241C71.4684 21.7476 71.0636 22.214 70.5096 22.5881C69.9556 22.9574 69.2785 23.142 68.4783 23.142C67.7823 23.142 67.1644 22.9905 66.6246 22.6875C66.0849 22.3797 65.6611 21.9299 65.3533 21.3381C65.0456 20.7462 64.8917 20.0194 64.8917 19.1577V12.0909H66.1559V19.0795C66.1559 19.9318 66.4068 20.6184 66.9087 21.1392C67.4106 21.6553 68.0546 21.9134 68.8406 21.9134C69.333 21.9134 69.8065 21.795 70.261 21.5582C70.7156 21.3215 71.0896 20.9759 71.3832 20.5213C71.6767 20.062 71.8235 19.4986 71.8235 18.831ZM74.8011 9.64773V8.45455H85.348V9.64773H80.7386V23H79.4105V9.64773H74.8011ZM93.5227 18.831V12.0909H94.7869V23H93.5227V21.1889H93.4233C93.1676 21.7476 92.7628 22.214 92.2088 22.5881C91.6548 22.9574 90.9777 23.142 90.1776 23.142C89.4815 23.142 88.8636 22.9905 88.3239 22.6875C87.7841 22.3797 87.3603 21.9299 87.0526 21.3381C86.7448 20.7462 86.5909 20.0194 86.5909 19.1577V12.0909H87.8551V19.0795C87.8551 19.9318 88.1061 20.6184 88.608 21.1392C89.1098 21.6553 89.7538 21.9134 90.5398 21.9134C91.0322 21.9134 91.5057 21.795 91.9602 21.5582C92.4148 21.3215 92.7888 20.9759 93.0824 20.5213C93.3759 20.062 93.5227 19.4986 93.5227 18.831ZM98.3967 23V8.45455H99.668V14.1719H99.7816C99.9237 13.8452 100.127 13.509 100.392 13.1634C100.662 12.8177 101.015 12.5289 101.451 12.2969C101.891 12.0601 102.445 11.9418 103.113 11.9418C104.007 11.9418 104.793 12.1785 105.471 12.652C106.148 13.1207 106.676 13.7789 107.054 14.6264C107.433 15.4692 107.623 16.4517 107.623 17.5739C107.623 18.7008 107.433 19.688 107.054 20.5355C106.68 21.383 106.155 22.0436 105.478 22.517C104.805 22.9905 104.024 23.2273 103.134 23.2273C102.471 23.2273 101.917 23.1089 101.472 22.8722C101.032 22.6354 100.676 22.3442 100.407 21.9986C100.137 21.6482 99.9284 21.3073 99.7816 20.9759H99.6254V23H98.3967ZM99.6467 17.5526C99.6467 18.4332 99.7769 19.2145 100.037 19.8963C100.302 20.5734 100.681 21.1061 101.174 21.4943C101.671 21.8778 102.272 22.0696 102.978 22.0696C103.702 22.0696 104.315 21.8707 104.817 21.473C105.319 21.0705 105.7 20.5284 105.961 19.8466C106.221 19.1648 106.351 18.4001 106.351 17.5526C106.351 16.7145 106.221 15.9593 105.961 15.2869C105.705 14.6146 105.326 14.0819 104.824 13.6889C104.322 13.2912 103.707 13.0923 102.978 13.0923C102.267 13.0923 101.664 13.2841 101.167 13.6676C100.674 14.0464 100.298 14.572 100.037 15.2443C99.7769 15.9119 99.6467 16.6813 99.6467 17.5526ZM114.81 23.2273C113.792 23.2273 112.911 22.9905 112.168 22.517C111.425 22.0388 110.849 21.3783 110.442 20.5355C110.04 19.688 109.838 18.7126 109.838 17.6094C109.838 16.5109 110.04 15.5355 110.442 14.6832C110.849 13.8262 111.41 13.1562 112.125 12.6733C112.845 12.1856 113.676 11.9418 114.618 11.9418C115.21 11.9418 115.781 12.0507 116.33 12.2685C116.879 12.4815 117.372 12.8106 117.807 13.2557C118.248 13.696 118.596 14.2524 118.851 14.9247C119.107 15.5923 119.235 16.383 119.235 17.2969V17.9219H110.712V16.8068H117.942C117.942 16.1061 117.8 15.4763 117.516 14.9176C117.237 14.3542 116.846 13.9091 116.344 13.5824C115.847 13.2557 115.272 13.0923 114.618 13.0923C113.927 13.0923 113.319 13.277 112.793 13.6463C112.267 14.0156 111.855 14.5033 111.557 15.1094C111.264 15.7154 111.114 16.3783 111.11 17.098V17.7656C111.11 18.6321 111.259 19.3897 111.557 20.0384C111.86 20.6823 112.289 21.1818 112.843 21.5369C113.397 21.892 114.052 22.0696 114.81 22.0696C115.326 22.0696 115.778 21.9891 116.167 21.8281C116.56 21.6671 116.889 21.4517 117.154 21.1818C117.424 20.9072 117.627 20.6065 117.765 20.2798L118.965 20.6705C118.799 21.1297 118.527 21.5535 118.148 21.9418C117.774 22.33 117.305 22.6425 116.742 22.8793C116.183 23.1113 115.539 23.2273 114.81 23.2273ZM121.062 10.9901V8.45455H133.008V10.9901H128.555V23H125.515V10.9901H121.062ZM133.786 23V12.0909H136.719V13.9943H136.832C137.031 13.3172 137.365 12.8059 137.834 12.4602C138.303 12.1098 138.842 11.9347 139.453 11.9347C139.605 11.9347 139.768 11.9441 139.943 11.9631C140.118 11.982 140.272 12.008 140.405 12.0412V14.7259C140.263 14.6832 140.066 14.6454 139.815 14.6122C139.564 14.5791 139.335 14.5625 139.126 14.5625C138.681 14.5625 138.284 14.6596 137.933 14.8537C137.588 15.0431 137.313 15.3082 137.109 15.6491C136.911 15.9901 136.811 16.383 136.811 16.8281V23H133.786ZM144.767 23.206C144.071 23.206 143.451 23.0852 142.907 22.8438C142.362 22.5975 141.931 22.2353 141.614 21.7571C141.301 21.2741 141.145 20.6728 141.145 19.9531C141.145 19.3471 141.257 18.8381 141.479 18.4261C141.702 18.0142 142.005 17.6828 142.388 17.4318C142.772 17.1809 143.207 16.9915 143.695 16.8636C144.187 16.7358 144.703 16.6458 145.243 16.5938C145.878 16.5275 146.389 16.4659 146.777 16.4091C147.166 16.3475 147.447 16.2576 147.623 16.1392C147.798 16.0208 147.885 15.8456 147.885 15.6136V15.571C147.885 15.1212 147.743 14.7732 147.459 14.527C147.18 14.2808 146.782 14.1577 146.266 14.1577C145.721 14.1577 145.288 14.2784 144.966 14.5199C144.644 14.7566 144.431 15.0549 144.327 15.4148L141.529 15.1875C141.671 14.5246 141.95 13.9517 142.367 13.4688C142.783 12.9811 143.321 12.607 143.979 12.3466C144.642 12.0814 145.409 11.9489 146.28 11.9489C146.886 11.9489 147.466 12.0199 148.02 12.1619C148.579 12.304 149.074 12.5241 149.505 12.8224C149.94 13.1207 150.283 13.5043 150.534 13.973C150.785 14.437 150.911 14.9934 150.911 15.642V23H148.042V21.4872H147.956C147.781 21.8281 147.547 22.1288 147.253 22.3892C146.96 22.6449 146.607 22.8461 146.195 22.9929C145.783 23.1349 145.307 23.206 144.767 23.206ZM145.634 21.1179C146.079 21.1179 146.472 21.0303 146.813 20.8551C147.154 20.6752 147.421 20.4337 147.615 20.1307C147.81 19.8277 147.907 19.4844 147.907 19.1009V17.9432C147.812 18.0047 147.682 18.0616 147.516 18.1136C147.355 18.161 147.173 18.206 146.969 18.2486C146.766 18.2865 146.562 18.322 146.358 18.3551C146.155 18.3835 145.97 18.4096 145.804 18.4332C145.449 18.4853 145.139 18.5682 144.874 18.6818C144.609 18.7955 144.403 18.9493 144.256 19.1435C144.109 19.3329 144.036 19.5696 144.036 19.8537C144.036 20.2656 144.185 20.5805 144.483 20.7983C144.786 21.0114 145.17 21.1179 145.634 21.1179ZM156.284 16.6932V23H153.258V12.0909H156.142V14.0156H156.27C156.511 13.3812 156.916 12.8793 157.484 12.5099C158.052 12.1359 158.741 11.9489 159.551 11.9489C160.308 11.9489 160.969 12.1146 161.532 12.446C162.096 12.7775 162.534 13.2509 162.846 13.8665C163.159 14.4773 163.315 15.2064 163.315 16.054V23H160.289V16.5938C160.294 15.9261 160.124 15.4053 159.778 15.0312C159.432 14.6525 158.957 14.4631 158.35 14.4631C157.943 14.4631 157.583 14.5507 157.271 14.7259C156.963 14.901 156.722 15.1567 156.547 15.4929C156.376 15.8243 156.288 16.2244 156.284 16.6932ZM174.776 15.2017L172.006 15.3722C171.959 15.1354 171.857 14.9223 171.701 14.733C171.545 14.5388 171.339 14.3849 171.083 14.2713C170.832 14.1529 170.531 14.0938 170.181 14.0938C169.712 14.0938 169.317 14.1932 168.995 14.392C168.673 14.5862 168.512 14.8466 168.512 15.1733C168.512 15.4337 168.616 15.6539 168.825 15.8338C169.033 16.0137 169.39 16.1581 169.897 16.267L171.871 16.6648C172.932 16.8826 173.723 17.233 174.244 17.7159C174.764 18.1989 175.025 18.8333 175.025 19.6193C175.025 20.3343 174.814 20.9616 174.393 21.5014C173.976 22.0412 173.403 22.4626 172.674 22.7656C171.95 23.0639 171.114 23.2131 170.167 23.2131C168.723 23.2131 167.572 22.9124 166.715 22.3111C165.863 21.705 165.363 20.8812 165.217 19.8395L168.192 19.6832C168.282 20.1236 168.5 20.4598 168.846 20.6918C169.192 20.919 169.634 21.0327 170.174 21.0327C170.704 21.0327 171.13 20.9309 171.452 20.7273C171.779 20.5189 171.945 20.2514 171.95 19.9247C171.945 19.6501 171.829 19.4252 171.602 19.25C171.374 19.0701 171.024 18.9328 170.55 18.8381L168.661 18.4616C167.596 18.2486 166.803 17.8793 166.282 17.3537C165.766 16.8281 165.508 16.1581 165.508 15.3438C165.508 14.643 165.697 14.0393 166.076 13.5327C166.46 13.026 166.997 12.6354 167.688 12.3608C168.384 12.0862 169.199 11.9489 170.131 11.9489C171.509 11.9489 172.594 12.2401 173.384 12.8224C174.18 13.4048 174.644 14.1979 174.776 15.2017ZM181.859 23.2131C180.742 23.2131 179.78 22.9763 178.975 22.5028C178.175 22.0246 177.56 21.3617 177.129 20.5142C176.703 19.6667 176.49 18.6913 176.49 17.5881C176.49 16.4706 176.705 15.4905 177.136 14.6477C177.572 13.8002 178.19 13.1397 178.99 12.6662C179.79 12.188 180.742 11.9489 181.845 11.9489C182.797 11.9489 183.63 12.1217 184.345 12.4673C185.06 12.813 185.626 13.2983 186.042 13.9233C186.459 14.5483 186.689 15.2822 186.731 16.125H183.876C183.796 15.5805 183.583 15.1425 183.237 14.8111C182.896 14.4749 182.449 14.3068 181.895 14.3068C181.426 14.3068 181.016 14.4347 180.666 14.6903C180.32 14.9413 180.05 15.3082 179.856 15.7912C179.662 16.2741 179.565 16.8589 179.565 17.5455C179.565 18.2415 179.66 18.8333 179.849 19.321C180.043 19.8087 180.315 20.1804 180.666 20.4361C181.016 20.6918 181.426 20.8196 181.895 20.8196C182.24 20.8196 182.55 20.7486 182.825 20.6065C183.104 20.4645 183.334 20.2585 183.514 19.9886C183.699 19.714 183.819 19.3849 183.876 19.0014H186.731C186.684 19.8348 186.457 20.5687 186.049 21.2031C185.647 21.8329 185.091 22.3253 184.38 22.6804C183.67 23.0355 182.83 23.2131 181.859 23.2131ZM188.668 23V12.0909H191.602V13.9943H191.715C191.914 13.3172 192.248 12.8059 192.717 12.4602C193.185 12.1098 193.725 11.9347 194.336 11.9347C194.487 11.9347 194.651 11.9441 194.826 11.9631C195.001 11.982 195.155 12.008 195.288 12.0412V14.7259C195.146 14.6832 194.949 14.6454 194.698 14.6122C194.447 14.5791 194.218 14.5625 194.009 14.5625C193.564 14.5625 193.166 14.6596 192.816 14.8537C192.47 15.0431 192.196 15.3082 191.992 15.6491C191.793 15.9901 191.694 16.383 191.694 16.8281V23H188.668ZM196.852 23V12.0909H199.877V23H196.852ZM198.372 10.6847C197.922 10.6847 197.536 10.5355 197.214 10.2372C196.897 9.93419 196.738 9.57197 196.738 9.15057C196.738 8.7339 196.897 8.37642 197.214 8.07812C197.536 7.77509 197.922 7.62358 198.372 7.62358C198.822 7.62358 199.205 7.77509 199.522 8.07812C199.844 8.37642 200.005 8.7339 200.005 9.15057C200.005 9.57197 199.844 9.93419 199.522 10.2372C199.205 10.5355 198.822 10.6847 198.372 10.6847ZM202.301 27.0909V12.0909H205.284V13.9233H205.419C205.552 13.6297 205.743 13.3314 205.994 13.0284C206.25 12.7206 206.581 12.465 206.989 12.2614C207.401 12.053 207.912 11.9489 208.523 11.9489C209.318 11.9489 210.052 12.1572 210.724 12.5739C211.397 12.9858 211.934 13.6084 212.337 14.4418C212.739 15.2704 212.94 16.3097 212.94 17.5597C212.94 18.7765 212.744 19.804 212.351 20.642C211.963 21.4754 211.432 22.1075 210.76 22.5384C210.092 22.9645 209.344 23.1776 208.516 23.1776C207.929 23.1776 207.429 23.0805 207.017 22.8864C206.61 22.6922 206.276 22.4484 206.016 22.1548C205.755 21.8565 205.556 21.5559 205.419 21.2528H205.327V27.0909H202.301ZM205.263 17.5455C205.263 18.1941 205.353 18.7599 205.533 19.2429C205.713 19.7259 205.973 20.1023 206.314 20.3722C206.655 20.6373 207.069 20.7699 207.557 20.7699C208.049 20.7699 208.466 20.6349 208.807 20.3651C209.148 20.0904 209.406 19.7116 209.581 19.2287C209.761 18.741 209.851 18.1799 209.851 17.5455C209.851 16.9157 209.763 16.3617 209.588 15.8835C209.413 15.4053 209.155 15.0312 208.814 14.7614C208.473 14.4915 208.054 14.3565 207.557 14.3565C207.064 14.3565 206.648 14.4867 206.307 14.7472C205.971 15.0076 205.713 15.3769 205.533 15.8551C205.353 16.3333 205.263 16.8968 205.263 17.5455ZM220.76 12.0909V14.3636H214.19V12.0909H220.76ZM215.682 9.47727H218.707V19.6477C218.707 19.9271 218.75 20.1449 218.835 20.3011C218.92 20.4527 219.039 20.5592 219.19 20.6207C219.347 20.6823 219.527 20.7131 219.73 20.7131C219.872 20.7131 220.014 20.7012 220.156 20.6776C220.298 20.6491 220.407 20.6278 220.483 20.6136L220.959 22.8651C220.807 22.9124 220.594 22.9669 220.32 23.0284C220.045 23.0947 219.711 23.1349 219.318 23.1491C218.589 23.1776 217.95 23.0805 217.401 22.858C216.856 22.6354 216.432 22.2898 216.129 21.821C215.826 21.3523 215.677 20.7604 215.682 20.0455V9.47727ZM222.731 23V12.0909H225.756V23H222.731ZM224.251 10.6847C223.801 10.6847 223.415 10.5355 223.093 10.2372C222.776 9.93419 222.617 9.57197 222.617 9.15057C222.617 8.7339 222.776 8.37642 223.093 8.07812C223.415 7.77509 223.801 7.62358 224.251 7.62358C224.701 7.62358 225.084 7.77509 225.401 8.07812C225.723 8.37642 225.884 8.7339 225.884 9.15057C225.884 9.57197 225.723 9.93419 225.401 10.2372C225.084 10.5355 224.701 10.6847 224.251 10.6847ZM233.109 23.2131C232.006 23.2131 231.052 22.9787 230.247 22.5099C229.447 22.0365 228.829 21.3783 228.393 20.5355C227.958 19.688 227.74 18.7055 227.74 17.5881C227.74 16.4612 227.958 15.4763 228.393 14.6335C228.829 13.786 229.447 13.1278 230.247 12.6591C231.052 12.1856 232.006 11.9489 233.109 11.9489C234.212 11.9489 235.164 12.1856 235.964 12.6591C236.769 13.1278 237.389 13.786 237.825 14.6335C238.261 15.4763 238.478 16.4612 238.478 17.5881C238.478 18.7055 238.261 19.688 237.825 20.5355C237.389 21.3783 236.769 22.0365 235.964 22.5099C235.164 22.9787 234.212 23.2131 233.109 23.2131ZM233.123 20.8693C233.625 20.8693 234.044 20.7273 234.38 20.4432C234.717 20.1544 234.97 19.7614 235.14 19.2642C235.315 18.767 235.403 18.2012 235.403 17.5668C235.403 16.9323 235.315 16.3665 235.14 15.8693C234.97 15.3722 234.717 14.9792 234.38 14.6903C234.044 14.4015 233.625 14.2571 233.123 14.2571C232.617 14.2571 232.19 14.4015 231.845 14.6903C231.504 14.9792 231.246 15.3722 231.071 15.8693C230.9 16.3665 230.815 16.9323 230.815 17.5668C230.815 18.2012 230.9 18.767 231.071 19.2642C231.246 19.7614 231.504 20.1544 231.845 20.4432C232.19 20.7273 232.617 20.8693 233.123 20.8693ZM243.471 16.6932V23H240.446V12.0909H243.329V14.0156H243.457C243.699 13.3812 244.103 12.8793 244.672 12.5099C245.24 12.1359 245.929 11.9489 246.738 11.9489C247.496 11.9489 248.156 12.1146 248.72 12.446C249.283 12.7775 249.721 13.2509 250.034 13.8665C250.346 14.4773 250.502 15.2064 250.502 16.054V23H247.477V16.5938C247.482 15.9261 247.311 15.4053 246.966 15.0312C246.62 14.6525 246.144 14.4631 245.538 14.4631C245.131 14.4631 244.771 14.5507 244.458 14.7259C244.151 14.901 243.909 15.1567 243.734 15.4929C243.564 15.8243 243.476 16.2244 243.471 16.6932Z" fill="#F9FAFB"/>
          </svg>